<?xml version="1.0" standalone="no"?>
<!DOCTYPE svg PUBLIC "-//W3C//DTD SVG 20010904//EN"
 "http://www.w3.org/TR/2001/REC-SVG-20010904/DTD/svg10.dtd">
<svg version="1.0" xmlns="http://www.w3.org/2000/svg"
 width="512.000000pt" height="512.000000pt" viewBox="0 0 512.000000 512.000000"
 preserveAspectRatio="xMidYMid meet">

<g transform="translate(0.000000,512.000000) scale(0.100000,-0.100000)"
fill="#000000" stroke="none">
<path d="M1775 4466 c-16 -8 -168 -153 -337 -322 -331 -334 -330 -332 -313
-421 9 -49 69 -109 118 -118 83 -16 100 -5 274 168 l163 161 2 -1596 c3 -1595
3 -1597 24 -1624 39 -53 71 -69 134 -69 63 0 95 16 134 69 21 27 21 29 24
1624 l2 1596 163 -161 c174 -173 191 -184 274 -168 49 9 109 69 118 118 17 89
18 87 -313 421 -170 170 -321 314 -339 322 -40 17 -89 17 -128 0z"/>
<path d="M3215 4466 c-37 -17 -70 -52 -84 -89 -8 -20 -11 -514 -11 -1610 l0
-1581 -162 161 c-175 173 -192 184 -275 168 -49 -9 -109 -69 -118 -118 -17
-89 -19 -86 323 -429 343 -342 339 -340 429 -323 33 5 80 48 355 323 342 343
340 340 323 429 -9 49 -69 109 -118 118 -83 16 -100 5 -274 -168 l-163 -161
-2 1596 c-3 1595 -3 1597 -24 1624 -11 15 -32 37 -46 47 -34 25 -113 32 -153
13z"/>
</g>
</svg>
